<svg xmlns="http://www.w3.org/2000/svg" xmlns:xlink="http://www.w3.org/1999/xlink" width="63" height="59" viewBox="0 0 63 59"><defs><style>.a{fill:#00acb6;}.b{fill:none;stroke:#fff;stroke-linecap:round;stroke-linejoin:round;stroke-width:4px;}.c{filter:url(#g);}.d{filter:url(#e);}.e{filter:url(#c);}.f{filter:url(#a);}</style><filter id="a" x="0" y="0" width="63" height="59" filterUnits="userSpaceOnUse"><feOffset dy="3" input="SourceAlpha"/><feGaussianBlur stdDeviation="3" result="b"/><feFlood flood-opacity="0.161"/><feComposite operator="in" in2="b"/><feComposite in="SourceGraphic"/></filter><filter id="c" x="23.871" y="7.378" width="29.562" height="44.685" filterUnits="userSpaceOnUse"><feOffset dy="3" input="SourceAlpha"/><feGaussianBlur stdDeviation="3" result="d"/><feFlood flood-opacity="0.161"/><feComposite operator="in" in2="d"/><feComposite in="SourceGraphic"/></filter><filter id="e" x="16.741" y="11.59" width="29.13" height="36.259" filterUnits="userSpaceOnUse"><feOffset dy="3" input="SourceAlpha"/><feGaussianBlur stdDeviation="3" result="f"/><feFlood flood-opacity="0.161"/><feComposite operator="in" in2="f"/><feComposite in="SourceGraphic"/></filter><filter id="g" x="9" y="19" width="37" height="22" filterUnits="userSpaceOnUse"><feOffset dy="3" input="SourceAlpha"/><feGaussianBlur stdDeviation="3" result="h"/><feFlood flood-opacity="0.161"/><feComposite operator="in" in2="h"/><feComposite in="SourceGraphic"/></filter></defs><g transform="translate(-627.81 -1023.025)"><g class="f" transform="matrix(1, 0, 0, 1, 627.81, 1023.02)"><rect class="a" width="45" height="41" transform="translate(9 6)"/></g><g transform="translate(647.709 1038.402)"><g class="e" transform="matrix(1, 0, 0, 1, -19.9, -15.38)"><path class="b" d="M15,3h5.041a2.521,2.521,0,0,1,2.521,2.521V23.164a2.521,2.521,0,0,1-2.521,2.521H15" transform="translate(19.87 12.38)"/></g><g transform="translate(0 5.041)"><g class="d" transform="matrix(1, 0, 0, 1, -19.9, -20.42)"><path class="b" d="M10,19.6l6.3-6.3L10,7" transform="translate(18.57 13.42)"/></g><g class="c" transform="matrix(1, 0, 0, 1, -19.9, -20.42)"><line class="b" x1="15" transform="translate(20 27)"/></g></g></g></g></svg>