<?xml version="1.0" encoding="utf-8"?>
<svg id="master-artboard" viewBox="0 0 222.39820861816406 221.2107391357422" version="1.1" xmlns="http://www.w3.org/2000/svg" x="0px" y="0px" style="enable-background:new 0 0 336 235.2;" width="222.39820861816406px" height="221.2107391357422px"><defs><filter id="a" x="0" y="0" width="45.723" height="45.685" filterUnits="userSpaceOnUse"><feOffset dy="3" input="SourceAlpha"/><feGaussianBlur stdDeviation="3" result="b"/><feFlood flood-color="#ffc400" flood-opacity="0.62"/><feComposite operator="in" in2="b"/><feComposite in="SourceGraphic"/></filter></defs><rect id="ee-background" x="0" y="0" width="222.39820861816406" height="221.2107391357422" style="fill: white; fill-opacity: 0; pointer-events: none;"/><g transform="matrix(7.935090065002441, 0, 0, 7.935090065002441, -70.80266165733337, -47.49708557128906)"><g transform="translate(-294.283 -130.382)"><g class="c" transform="matrix(1, 0, 0, 1, 294.28, 130.38)" style="filter: url('#a');"><path class="a" d="M309.705,129a2.3,2.3,0,0,1,1.735.734c3.81,3.809,7.631,7.607,11.422,11.435a2.2,2.2,0,0,1-.049,3.354q-5.654,5.7-11.352,11.353a2.217,2.217,0,0,1-3.431-.011q-5.659-5.617-11.277-11.276a2.236,2.236,0,0,1-.026-3.508q5.619-5.658,11.27-11.283A2.421,2.421,0,0,1,309.705,129Zm6.5,13.874a2.5,2.5,0,0,0-.747-1.738c-1.344-1.348-2.67-2.715-4.045-4.031a2.225,2.225,0,0,0-3.357.04q-2.016,1.944-3.962,3.962a2.242,2.242,0,0,0,0,3.435q1.947,2.014,3.962,3.961a2.246,2.246,0,0,0,3.435-.039c1.316-1.274,2.591-2.589,3.892-3.878A2.674,2.674,0,0,0,316.2,142.874Z" transform="translate(-286.89 -123)" style="fill: rgb(239, 106, 21);"/></g><path class="b" d="M388.794,217.238a1.758,1.758,0,0,1-.538,1.125c-.856.848-1.695,1.713-2.56,2.551a1.477,1.477,0,0,1-2.26.026q-1.327-1.278-2.606-2.606a1.475,1.475,0,0,1,0-2.259q1.28-1.325,2.606-2.606a1.464,1.464,0,0,1,2.208-.026c.9.866,1.776,1.765,2.661,2.652A1.643,1.643,0,0,1,388.794,217.238Z" transform="translate(-67.414 -67.013)" style="fill: rgb(254, 254, 254);"/></g></g></svg>