<svg xmlns="http://www.w3.org/2000/svg" width="44.571" height="45.502" viewBox="0 0 44.571 45.502">
    <defs>
        <style>
        .a {
            fill: #fff;
            stroke: #fff;
            stroke-width: 1.5px;
        }

        .b {
            stroke: #fff;
        }
        </style>
    </defs>
    <g transform="translate(0.75 0.75)">
        <path class="a" d="M542.357,551.607h-6.48a.323.323,0,0,1,0-.646h6.346l25.769-25.866a.323.323,0,0,1,.229-.1H574.6a.323.323,0,1,1,0,.646h-6.248l-25.769,25.867A.322.322,0,0,1,542.357,551.607Z" transform="translate(-535.554 -525)" />
        <path class="a" d="M1260.175,539.988a.323.323,0,0,1-.323-.323V525.323a.323.323,0,1,1,.646,0v14.342A.323.323,0,0,1,1260.175,539.988Z" transform="translate(-1227.508 -525)" />
        <path class="a" d="M680.984,1118.808a.323.323,0,0,1-.323-.323v-11.792a.323.323,0,0,1,.646,0v11.792A.323.323,0,0,1,680.984,1118.808Z" transform="translate(-674.181 -1080.409)" />
        <path class="a" d="M970.456,829.4a.323.323,0,0,1-.323-.323V816.008a.323.323,0,1,1,.646,0v13.067A.323.323,0,0,1,970.456,829.4Z" transform="translate(-950.727 -802.704)" />
        <path class="b" d="M1264.026,852.674h-3.851a.323.323,0,0,1-.323-.323V846.5a.323.323,0,0,1,.323-.323h10.319a.323.323,0,0,1,.217.563l-6.469,5.853A.324.324,0,0,1,1264.026,852.674Zm-3.528-.646h3.4l5.755-5.207H1260.5Z" transform="translate(-1227.508 -831.833)" />
        <path class="b" d="M1119.166,983.737h-3.851a.323.323,0,0,1-.323-.323v-5.853a.323.323,0,0,1,.323-.323h10.319a.323.323,0,0,1,.217.563l-6.469,5.853A.323.323,0,0,1,1119.166,983.737Zm-3.527-.646h3.4l5.755-5.207h-9.158Z" transform="translate(-1089.117 -957.043)" />
        <path class="b" d="M974.307,1114.8h-3.851a.323.323,0,0,1-.323-.323v-5.853a.323.323,0,0,1,.323-.323h10.319a.323.323,0,0,1,.217.563l-6.469,5.853A.323.323,0,0,1,974.307,1114.8Zm-3.527-.646h3.4l5.755-5.207h-9.158Z" transform="translate(-950.727 -1082.254)" />
        <path class="b" d="M829.447,1245.865H825.6a.323.323,0,0,1-.323-.323v-5.853a.323.323,0,0,1,.323-.323h10.319a.323.323,0,0,1,.217.563l-6.469,5.853A.322.322,0,0,1,829.447,1245.865Zm-3.527-.646h3.4l5.755-5.207H825.92Z" transform="translate(-812.336 -1207.466)" />
        <path class="b" d="M684.587,1376.928h-3.85a.323.323,0,0,1-.323-.323v-5.853a.323.323,0,0,1,.323-.323h10.319a.323.323,0,0,1,.217.562l-6.469,5.853A.323.323,0,0,1,684.587,1376.928Zm-3.527-.646h3.4l5.755-5.207H681.06Z" transform="translate(-673.945 -1332.676)" />
    </g>
</svg>