<svg xmlns="http://www.w3.org/2000/svg" width="44.082" height="45.889" viewBox="0 0 44.082 45.889">
    <defs>
        <style>
        .a {
            fill: #fff;
        }
        circle,path{
            fill:#fff;
        }
        </style>
    </defs>
    <g transform="translate(0 32.105)">
        <path d="M432.23,313.938H393.382a2.62,2.62,0,0,1-2.617-2.617v-8.55a2.62,2.62,0,0,1,2.617-2.617H432.23a2.62,2.62,0,0,1,2.617,2.617v8.55A2.62,2.62,0,0,1,432.23,313.938Zm-37.8-3.664h36.754v-6.456H394.429Z" transform="translate(-390.765 -300.154)" />
    </g>
    <circle class="a" cx="2.116" cy="2.116" r="2.116" transform="translate(19.925 36.881)" />
    <circle class="a" cx="2.116" cy="2.116" r="2.116" transform="translate(6.578 36.881)" />
    <circle class="a" cx="2.116" cy="2.116" r="2.116" transform="translate(33.273 36.881)" />
    <g transform="translate(3.704 17.031)">
        <path d="M438,269.679l-17-14.452-16.63,14.443-1.716-1.976,18.328-15.917,18.71,15.908Z" transform="translate(-402.652 -251.776)" />
    </g>
    <g transform="translate(17.474 9.248)">
        <path class="a" d="M446.857,233.246a.691.691,0,0,1,.719-.781h1.047a1.106,1.106,0,0,1,.937.765,2.006,2.006,0,1,0,1.855-2.771h-1.309v-3.664h2.617v1.235a4.624,4.624,0,1,1-5.866,5.216Z" transform="translate(-446.847 -226.794)" />
    </g>
    <g transform="translate(15.641)">
        <path class="a" d="M450.055,206.8h-5.378l-3.711-4.026v-5.658h12.8v5.659Zm-4.231-2.617h3.084l2.24-2.431v-2.019h-7.565v2.019Z" transform="translate(-440.966 -197.114)" />
    </g>
</svg>