<svg xmlns="http://www.w3.org/2000/svg" width="34" height="34"><rect id="backgroundrect" width="100%" height="100%" x="0" y="0" fill="none" stroke="none"/>
    
<g class="currentLayer" style=""><title>Layer 1</title><g id="Group_1830" data-name="Group 1830" class="">
        <g id="Group_1716" data-name="Group 1716">
            <path id="Path_1948" data-name="Path 1948" d="M12.010908171534538,1.7429962158203125 A1.7450000047683716,1.7450000047683716 0 0 0 10.267988249659538,0 h-6.258999824523926 a1.7430000305175781,1.7430000305175781 0 0 0 -0.6639999747276306,3.3540000915527344 V16.860000610351562 a1.7430000305175781,1.7430000305175781 0 0 0 0.6639999747276306,3.3540000915527344 h6.258999824523926 a1.7430000305175781,1.7430000305175781 0 0 0 0.6639999747276306,-3.3540000915527344 V3.3539962768554688 A1.7450000047683716,1.7450000047683716 0 0 0 12.010908171534538,1.7429962158203125 zm-8,-0.6309999823570251 h6.258999824523926 a0.6309999823570251,0.6309999823570251 0 0 1 0.061000000685453415,1.2599999904632568 h0 c-0.01899999938905239,0 -0.03799999877810478,0 -0.05700000002980232,0 h-6.258999824523926 c-0.01899999938905239,0 -0.03799999877810478,0 -0.05700000002980232,0 h0 a0.6309999823570251,0.6309999823570251 0 0 1 0.061000000685453415,-1.2599999904632568 zm5.811999797821045,15.616000175476074 h-5.363999843597412 V3.4860000610351562 H9.820966765284538 zm0.4480000138282776,2.374000072479248 h-6.258999824523926 a0.6309999823570251,0.6309999823570251 0 0 1 -0.061000000685453415,-1.2599999904632568 h0 c0.01899999938905239,0 0.03799999877810478,0 0.05700000002980232,0 h6.258999824523926 c0.01899999938905239,0 0.03799999877810478,0 0.05700000002980232,0 h0.008999999612569809 a0.6309999823570251,0.6309999823570251 0 0 1 -0.06599999964237213,1.2589999437332153 z" fill="#fff" stroke="#fff" stroke-width="0.25"/>
            <path id="Path_1949" data-name="Path 1949" d="M1.743892714381218,34.45900344848633 a1.7450000047683716,1.7450000047683716 0 0 0 1.6109999418258667,-1.0789999961853027 h7.561999797821045 a10.711999893188477,10.711999893188477 0 0 0 10.699999809265137,-10.491000175476074 a1.7419999837875366,1.7419999837875366 0 0 0 0,-3.2230000495910645 v-4.324999809265137 a3.117000102996826,3.117000102996826 0 0 1 3.114000082015991,-3.114000082015991 H30.743892714381218 a1.7419999837875366,1.7419999837875366 0 0 0 3.3929998874664307,-0.5559999942779541 v-6.258999824523926 a1.7419999837875366,1.7419999837875366 0 0 0 -3.299999952316284,-0.7720000147819519 h-6.099999904632568 a10.711999893188477,10.711999893188477 0 0 0 -10.699999809265137,10.699999809265137 v4.324999809265137 a1.7419999837875366,1.7419999837875366 0 0 0 -0.00800000037997961,3.2190001010894775 a3.117000102996826,3.117000102996826 0 0 1 -3.1059999465942383,2.9079999923706055 H3.354000136256218 a1.7430000305175781,1.7430000305175781 0 0 0 -3.3540000915527344,0.6639999747276306 v6.258999824523926 A1.7450000047683716,1.7450000047683716 0 0 0 1.743892714381218,34.45900344848633 zm12.892000198364258,-12.553999900817871 h0 a0.6309999823570251,0.6309999823570251 0 0 1 0,-1.25600004196167 h0 c0.01899999938905239,0 0.03799999877810478,0 0.05700000002980232,0 h6.258999824523926 c0.01899999938905239,0 0.03799999877810478,0 0.05700000002980232,0 h0.008999999612569809 a0.6309999823570251,0.6309999823570251 0 0 1 0,1.25600004196167 h0 c-0.01899999938905239,0 -0.03799999877810478,0 -0.057999998331069946,0 h-6.258999824523926 C14.673946425318718,21.907001495361328 14.653926894068718,21.905994415283203 14.635005995631218,21.903995513916016 zm17.756999969482422,-17.124000549316406 a0.6320000290870667,0.6320000290870667 0 0 1 0.6309999823570251,0.6309999823570251 v6.258999824523926 a0.6309999823570251,0.6309999823570251 0 1 1 -1.2630000114440918,0 v-6.258999824523926 a0.6349999904632568,0.6349999904632568 0 0 1 0.010999999940395355,-0.11500000208616257 s0,-0.007000000216066837 0,-0.010999999940395355 A0.6320000290870667,0.6320000290870667 0 0 1 32.39196400344372,4.780994415283203 zM15.143917128443718,15.341007232666016 a9.600000381469727,9.600000381469727 0 0 1 9.58899974822998,-9.58899974822998 h5.919000148773193 v5.363999843597412 h-5.919000148773193 a4.230000019073486,4.230000019073486 0 0 0 -4.224999904632568,4.224999904632568 v4.192999839782715 H15.143917128443718 zm-0.014000000432133675,7.677999973297119 h5.370999813079834 a9.600000381469727,9.600000381469727 0 0 1 -9.583000183105469,9.24899959564209 h-7.429999828338623 v-5.363999843597412 h7.429999828338623 A4.230999946594238,4.230999946594238 0 0 0 15.127925917506218,23.019001007080078 zM1.111934706568718,26.459003448486328 a0.6309999823570251,0.6309999823570251 0 0 1 1.2599999904632568,-0.061000000685453415 s0,0 0,0 c0,0.01899999938905239 0,0.03799999877810478 0,0.05700000002980232 v6.258999824523926 c0,0.01899999938905239 0,0.03799999877810478 0,0.05700000002980232 c0,0 0,0 0,0 a0.6309999823570251,0.6309999823570251 0 0 1 -1.2599999904632568,-0.061000000685453415 z" fill="#fff" stroke="#fff" stroke-width="0.25"/>
        </g>
    </g></g></svg>