<svg xmlns="http://www.w3.org/2000/svg" width="52.566" height="26.855" viewBox="0 0 52.566 26.855"><defs><style>.a{fill:#00acb6;}</style></defs><g transform="translate(-770.87 -677.809)"><path class="a" d="M819.04,721.44h-5.709l-3.41,3.41h-6.5l-3.41-3.41H794.3l-3.41,3.41h-6.5l-3.41-3.41h-5.709l-4.4,4.392v7.448a.966.966,0,0,0,.966.966H822.47a.966.966,0,0,0,.966-.966v-7.448Zm-43.109,1.61H780.3c2.752,2.752,3.413,3.41,3.413,3.41h7.837l3.41-3.41h4.376l3.41,3.41h7.837l3.41-3.41h4.376l3.317,3.317-.647.65c-1.581-1.582-.781-.777-3.052-3.049h-3.613l-3.41,3.41h-8.6l-3.413-3.41h-3.613l-3.41,3.41h-8.6c-3.533-3.533-.693-.689-3.413-3.41h-3.613l-3.049,3.049-.647-.65Zm-3.452,8.484a2.156,2.156,0,0,1,.734.229,2.665,2.665,0,0,0,2.334,0,2.449,2.449,0,0,1,2.106,0,2.668,2.668,0,0,0,2.331,0,2.449,2.449,0,0,1,2.106,0,2.672,2.672,0,0,0,2.338,0,2.416,2.416,0,0,1,2.106,0,2.665,2.665,0,0,0,2.334,0l.016-.01a2.421,2.421,0,0,1,2.093.01,2.665,2.665,0,0,0,2.334,0,2.449,2.449,0,0,1,2.106,0,2.675,2.675,0,0,0,2.334,0,2.449,2.449,0,0,1,2.106,0,2.664,2.664,0,0,0,2.334,0,2.416,2.416,0,0,1,2.106,0,2.664,2.664,0,0,0,2.334,0l.019-.01a2.2,2.2,0,0,1,.914-.238v0l.122,0h.019a2.218,2.218,0,0,1,1.034.248,2.672,2.672,0,0,0,2.338,0,2.442,2.442,0,0,1,2.1,0,2.675,2.675,0,0,0,2.334,0,2.449,2.449,0,0,1,2.106,0,2.6,2.6,0,0,0,2.334,0,2.43,2.43,0,0,1,1.868-.1v.976H772.48Zm47.366.016a2.427,2.427,0,0,1-2.106,0,2.693,2.693,0,0,0-2.338,0,2.409,2.409,0,0,1-2.1,0,2.686,2.686,0,0,0-2.334,0,2.427,2.427,0,0,1-2.106,0,2.438,2.438,0,0,0-1.05-.274l-.119-.006a2.492,2.492,0,0,0-1.166.277l-.019.013a2.436,2.436,0,0,1-2.09-.01,2.672,2.672,0,0,0-2.338,0,2.427,2.427,0,0,1-2.106,0,2.686,2.686,0,0,0-2.334,0,2.409,2.409,0,0,1-2.1,0,2.686,2.686,0,0,0-2.334,0,2.427,2.427,0,0,1-2.106,0,2.682,2.682,0,0,0-2.338,0l-.016.013a2.444,2.444,0,0,1-2.093-.01,2.665,2.665,0,0,0-2.334,0,2.427,2.427,0,0,1-2.106,0,2.694,2.694,0,0,0-2.338,0,2.4,2.4,0,0,1-2.1,0,2.694,2.694,0,0,0-2.338,0,2.427,2.427,0,0,1-2.106,0,2.408,2.408,0,0,0-.847-.258v-1.269a2.027,2.027,0,0,1,.731.225,2.682,2.682,0,0,0,2.338,0,2.428,2.428,0,0,1,2.106,0,2.668,2.668,0,0,0,2.331,0,2.439,2.439,0,0,1,2.106,0,2.682,2.682,0,0,0,2.338,0,2.431,2.431,0,0,1,2.1,0,2.674,2.674,0,0,0,2.309.013l.032-.013a2.438,2.438,0,0,1,2.106,0,2.675,2.675,0,0,0,2.334,0,2.428,2.428,0,0,1,2.106,0,2.675,2.675,0,0,0,2.334,0,2.439,2.439,0,0,1,2.106,0,2.675,2.675,0,0,0,2.334,0,2.439,2.439,0,0,1,2.106,0,2.674,2.674,0,0,0,2.309.013l.029-.013a2.428,2.428,0,0,1,2.106,0,2.682,2.682,0,0,0,2.338,0,2.42,2.42,0,0,1,2.1,0,2.675,2.675,0,0,0,2.334,0,2.439,2.439,0,0,1,2.106,0,2.6,2.6,0,0,0,2.334,0,2.458,2.458,0,0,1,1.868-.106V731.4A2.673,2.673,0,0,0,819.845,731.551Zm0-1.513a2.432,2.432,0,0,1-2.1,0,2.682,2.682,0,0,0-2.338,0,2.431,2.431,0,0,1-2.1,0,2.675,2.675,0,0,0-2.334,0,2.439,2.439,0,0,1-2.106,0,2.7,2.7,0,0,0-2.309-.016l-.032.016a2.431,2.431,0,0,1-2.1,0,2.682,2.682,0,0,0-2.338,0,2.438,2.438,0,0,1-2.106,0,2.675,2.675,0,0,0-2.334,0,2.431,2.431,0,0,1-2.1,0,2.682,2.682,0,0,0-2.338,0,2.431,2.431,0,0,1-2.1,0,2.7,2.7,0,0,0-2.309-.016l-.032.016a2.439,2.439,0,0,1-2.106,0,2.675,2.675,0,0,0-2.334,0,2.438,2.438,0,0,1-2.106,0,2.682,2.682,0,0,0-2.338,0,2.424,2.424,0,0,1-2.1,0,2.682,2.682,0,0,0-2.338,0,2.438,2.438,0,0,1-2.106,0,2.308,2.308,0,0,0-.847-.258v-1.269a2.107,2.107,0,0,1,.734.222,2.643,2.643,0,0,0,2.334,0,2.449,2.449,0,0,1,2.106,0,2.636,2.636,0,0,0,2.331,0,2.451,2.451,0,0,1,2.045-.032l.061.035a2.6,2.6,0,0,0,2.338,0l.045-.026a2.377,2.377,0,0,1,2-.01l.064.035a2.592,2.592,0,0,0,2.334,0l.016-.01a2.443,2.443,0,0,1,2.093.006,2.643,2.643,0,0,0,2.334,0,2.449,2.449,0,0,1,2.106,0,2.653,2.653,0,0,0,2.334,0,2.443,2.443,0,0,1,2.041-.032l.064.035a2.592,2.592,0,0,0,2.334,0l.045-.026a2.377,2.377,0,0,1,2-.01l.064.035a2.592,2.592,0,0,0,2.334,0l.019-.01a2.436,2.436,0,0,1,2.09.006,2.65,2.65,0,0,0,2.338,0,2.442,2.442,0,0,1,2.1,0,2.572,2.572,0,0,0,2.334,0,2.444,2.444,0,0,1,2.041-.032l.064.035a2.592,2.592,0,0,0,2.334,0l.045-.026a2.382,2.382,0,0,1,1.823-.084v1.262A2.711,2.711,0,0,0,819.842,730.037Zm-47.362-2.895.782.782.5-.5a2.681,2.681,0,0,0,1.787-.206,2.438,2.438,0,0,1,2.106,0,2.668,2.668,0,0,0,2.331,0,2.428,2.428,0,0,1,2.106,0,2.323,2.323,0,0,0,.319.139l.66.66H792.2l.6-.6,0,0a2.006,2.006,0,0,0,.509-.193,2.438,2.438,0,0,1,2.106,0,2.675,2.675,0,0,0,2.334,0,2.439,2.439,0,0,1,2.106,0,2.609,2.609,0,0,0,1.671.225l.573.573h9.129l1.037-1.037a2.231,2.231,0,0,1,.914.238,2.675,2.675,0,0,0,2.334,0,2.439,2.439,0,0,1,2.106,0,2.6,2.6,0,0,0,2.334,0,1.94,1.94,0,0,1,.264-.116h0l.818.818.782-.782v1.23a2.615,2.615,0,0,0-1.98.151l-.048.026a2.377,2.377,0,0,1-2,.01l-.061-.035a2.671,2.671,0,0,0-2.338,0,2.409,2.409,0,0,1-2.1,0,2.664,2.664,0,0,0-2.334,0,2.416,2.416,0,0,1-2.106,0,2.664,2.664,0,0,0-2.334,0l-.019.01a2.368,2.368,0,0,1-2.029.026l-.061-.035a2.6,2.6,0,0,0-2.338,0l-.045.026a2.377,2.377,0,0,1-2,.01l-.064-.035a2.664,2.664,0,0,0-2.334,0,2.409,2.409,0,0,1-2.1,0,2.664,2.664,0,0,0-2.334,0,2.416,2.416,0,0,1-2.106,0,2.671,2.671,0,0,0-2.338,0l-.016.01a2.368,2.368,0,0,1-2.029.026l-.064-.035a2.591,2.591,0,0,0-2.334,0l-.045.026a2.377,2.377,0,0,1-2,.01l-.064-.035a2.671,2.671,0,0,0-2.338,0,2.4,2.4,0,0,1-2.1,0,2.671,2.671,0,0,0-2.338,0,2.416,2.416,0,0,1-2.106,0,2.308,2.308,0,0,0-.847-.258Zm40.955-1.32a2.7,2.7,0,0,0,2.083-.116,2.45,2.45,0,0,1,2.106,0,2.464,2.464,0,0,0,1.166.28,2.261,2.261,0,0,0,.3-.019l.953.953a1.739,1.739,0,0,0-.193.09,2.427,2.427,0,0,1-2.106,0,2.682,2.682,0,0,0-2.338,0,2.431,2.431,0,0,1-2.1,0,2.224,2.224,0,0,0-.8-.248Zm.19-.193,1.021-1.017h3.081l1.13,1.13a2.265,2.265,0,0,1-1.117-.245,2.671,2.671,0,0,0-2.338,0A2.476,2.476,0,0,1,813.625,725.629Zm-18.888-.142a2.1,2.1,0,0,1,.683.219,2.653,2.653,0,0,0,2.334,0,2.473,2.473,0,0,1,1.974-.061l1.594,1.594a2.375,2.375,0,0,1-1.349-.229,2.675,2.675,0,0,0-2.334,0,2.431,2.431,0,0,1-2.1,0,2.674,2.674,0,0,0-2.309-.013Zm.206-.206.67-.67h3.081l.673.673a2.667,2.667,0,0,0-1.729.213,2.431,2.431,0,0,1-2.1,0A2.1,2.1,0,0,0,794.942,725.281Zm-19.529.493,0,0c.045-.019.09-.042.132-.064a2.449,2.449,0,0,1,2.106,0,2.646,2.646,0,0,0,2.331,0,2.059,2.059,0,0,1,.57-.2l1.381,1.381a2.729,2.729,0,0,0-2.067.122,2.424,2.424,0,0,1-2.1,0,2.682,2.682,0,0,0-2.338,0,2.417,2.417,0,0,1-1.468.213Zm.454-.451.712-.712h3.081l.7.7a2.088,2.088,0,0,0-.486.19,2.424,2.424,0,0,1-2.1,0A2.709,2.709,0,0,0,775.867,725.323Z" transform="translate(0 -29.582)"/><path d="M791.391,681.869l5.352,5.352a.965.965,0,0,0,1.366,0l7.6-7.6-1.815-1.815-6.462,6.462-4.223-4.217,1.732-1.732-5.411-.131.131,5.411Z" transform="translate(-12.65)"/><path d="M867.075,681.869l5.352,5.352a.966.966,0,0,0,1.366,0l7.6-7.6-1.815-1.815-6.463,6.462-4.223-4.217,1.732-1.732-5.411-.131.131,5.411Z" transform="translate(-63.964)"/></g></svg>