<svg xmlns="http://www.w3.org/2000/svg" width="22.604" height="31" viewBox="0 0 22.604 31"><defs><style>.a{fill:#fff;}.b{fill:#fff;}</style></defs><path class="a" d="M30.885,6H10.219a.969.969,0,0,0-.969.969V36.031a.969.969,0,0,0,.969.969H30.885a.969.969,0,0,0,.969-.969V6.969A.969.969,0,0,0,30.885,6Zm-.969,29.063H11.187V7.938H29.917Z" transform="translate(-9.25 -6)"/><path class="b" d="M12.146,33.438h15.5a.646.646,0,0,0,.646-.646V8.9a.646.646,0,0,0-.646-.646h-15.5A.646.646,0,0,0,11.5,8.9v23.9A.646.646,0,0,0,12.146,33.438Zm.646-23.9H27v22.6H12.792Z" transform="translate(-8.594 -5.344)"/></svg>